# xmcd
#
# Track frame offsets:
#	150
#	27059
#	45450
#	63375
#	81210
#	100368
#	118788
#	135327
#	152347
#	203320
#
# Disc length: 2983 seconds
#
# Revision: 3
# Processed by: cddbd v1.5PL3 Copyright (c) Steve Scherf et al.
# Submitted via: EasyCDDAExtractor 6.2.0.3
#
DISCID=700ba50a
DTITLE=Various Artist - Che fantastica storia è la vita
DYEAR=2003
DGENRE=Other
TTITLE0=Che fantastica storia è la vita - Antonello Venditti
TTITLE1=Antonello Venditti
TTITLE2=Antonello Venditti
TTITLE3=Antonello Venditti
TTITLE4=Antonello Venditti
TTITLE5=Antonello Venditti
TTITLE6=Antonello Venditti
TTITLE7=Antonello Venditti
TTITLE8=Antonello Venditti
TTITLE9=Antonello Venditti
EXTD=
EXTT0=
EXTT1=
EXTT2=
EXTT3=
EXTT4=
EXTT5=
EXTT6=
EXTT7=
EXTT8=
EXTT9=
PLAYORDER=
